<svg width="35" height="34" viewBox="0 0 35 34" fill="none" xmlns="http://www.w3.org/2000/svg">
<g clip-path="url(#clip0_855_3486)">
<path d="M32.8273 28.0918H1.17273C0.861706 28.0918 0.563416 27.9688 0.343486 27.7497C0.123556 27.5307 0 27.2337 0 26.9239L0 7.07479C-9.89446e-08 6.92148 0.0303432 6.76967 0.0892949 6.62805C0.148247 6.48643 0.234651 6.35777 0.343566 6.24942C0.452482 6.14108 0.581774 6.05517 0.724049 5.99662C0.866324 5.93808 1.01879 5.90803 1.17273 5.9082H32.8273C32.9812 5.90803 33.1337 5.93808 33.276 5.99662C33.4182 6.05517 33.5475 6.14108 33.6564 6.24942C33.7653 6.35777 33.8518 6.48643 33.9107 6.62805C33.9697 6.76967 34 6.92148 34 7.07479V26.9239C34 27.2337 33.8764 27.5307 33.6565 27.7497C33.4366 27.9688 33.1383 28.0918 32.8273 28.0918Z" fill="#41479B"/>
<path d="M32.8273 5.9082H30.7912L19.9312 12.9937V5.9082H14.0688V12.9937L3.20875 5.9082H1.17273C1.01879 5.90803 0.866324 5.93808 0.724049 5.99662C0.581774 6.05517 0.452482 6.14108 0.343566 6.24942C0.234651 6.35777 0.148247 6.48643 0.0892949 6.62805C0.0303432 6.76967 -9.89446e-08 6.92148 0 7.07479L0 8.00065L9.3168 14.0849H0V19.9231H9.3168L0 25.998V26.9239C0 27.2337 0.123556 27.5307 0.343486 27.7497C0.563416 27.9688 0.861706 28.0918 1.17273 28.0918H3.20875L14.0688 21.0063V28.0918H19.9312V21.0063L30.7912 28.0918H32.8273C33.1383 28.0918 33.4366 27.9688 33.6565 27.7497C33.8764 27.5307 34 27.2337 34 26.9239V25.998L24.6832 19.9138H34V14.0809H24.6832L34 7.99668V7.07082C33.9986 6.76199 33.8744 6.46629 33.6546 6.2484C33.4349 6.03052 33.1374 5.9082 32.8273 5.9082V5.9082Z" fill="#F5F5F5"/>
<path d="M34 15.2488H18.7584V5.9082H15.2416V15.2488H0V18.7512H15.2416V28.0918H18.7584V18.7512H34V15.2488Z" fill="#FF4B55"/>
<path d="M12.9311 14.046L0.560661 6.01978C0.391764 6.12117 0.2516 6.26403 0.153474 6.43478C0.0553485 6.60554 0.00251852 6.79853 0 6.99543L0 7.05666L10.7724 14.046H12.9311Z" fill="#FF4B55"/>
<path d="M22.1137 14.0459L33.8885 6.49031C33.7882 6.31554 33.6432 6.16982 33.4681 6.06768C33.293 5.96554 33.0939 5.91056 32.8906 5.9082H32.6362L19.9541 14.0459H22.1137Z" fill="#FF4B55"/>
<path d="M11.8987 19.9541L0.2229 27.4939C0.32103 27.6732 0.465549 27.8232 0.641502 27.9283C0.817455 28.0335 1.01845 28.0899 1.22368 28.0918H1.44343L14.0459 19.9541H11.8987Z" fill="#FF4B55"/>
<path d="M34 27.0227L23.0002 19.9541H20.8459L33.3361 27.9803C33.5228 27.8936 33.6828 27.7592 33.7995 27.5908C33.9162 27.4225 33.9855 27.2263 34 27.0227Z" fill="#FF4B55"/>
</g>
<defs>
<clipPath id="clip0_855_3486">
<rect width="34.1115" height="34" fill="white"/>
</clipPath>
</defs>
</svg>
