<svg width="34" height="34" viewBox="0 0 34 34" fill="none" xmlns="http://www.w3.org/2000/svg">
<g clip-path="url(#clip0_855_3446)">
<path d="M0.586367 28.1383H33.4136C33.4906 28.1383 33.5669 28.1231 33.638 28.0936C33.7092 28.0642 33.7738 28.021 33.8283 27.9665C33.8827 27.9121 33.9259 27.8474 33.9554 27.7763C33.9848 27.7052 34 27.6289 34 27.5519V6.44801C34 6.37104 33.9848 6.29482 33.9554 6.22372C33.9259 6.15261 33.8827 6.08801 33.8282 6.03362C33.7738 5.97922 33.7091 5.93609 33.638 5.9067C33.5668 5.8773 33.4906 5.86222 33.4136 5.86231H0.586367C0.509396 5.86222 0.433162 5.8773 0.362024 5.9067C0.290887 5.93609 0.226241 5.97922 0.171783 6.03362C0.117325 6.08801 0.0741233 6.15261 0.0446474 6.22372C0.0151716 6.29482 -4.94723e-08 6.37104 0 6.44801L0 27.5519C0 27.6289 0.0151668 27.7052 0.0446345 27.7763C0.0741023 27.8474 0.117294 27.9121 0.171743 27.9665C0.226192 28.021 0.290833 28.0642 0.361974 28.0936C0.433116 28.1231 0.509364 28.1383 0.586367 28.1383V28.1383Z" fill="#C8414B"/>
<path d="M34 10.5518H0V23.4485H34V10.5518Z" fill="#FFD250"/>
<path d="M14.3622 16.9997L14.859 14.7632C14.8688 14.7152 14.8678 14.6657 14.8562 14.6181C14.8446 14.5705 14.8226 14.5261 14.7919 14.488C14.7611 14.45 14.7223 14.4192 14.6782 14.3978C14.6341 14.3765 14.5859 14.3652 14.5369 14.3647H14.1869C14.138 14.3652 14.0897 14.3765 14.0456 14.3978C14.0016 14.4192 13.9627 14.45 13.932 14.488C13.9012 14.5261 13.8792 14.5705 13.8676 14.6181C13.856 14.6657 13.8551 14.7152 13.8649 14.7632L14.3622 16.9997Z" fill="#C8414B"/>
<path d="M14.9479 15.8271H13.7759V20.8096H14.9479V15.8271Z" fill="#F5F5F5"/>
<path d="M15.2409 15.2415H13.4824V15.8278H15.2409V15.2415Z" fill="#FAB446"/>
<path d="M15.2415 16.9998H12.3103V17.5861H15.2415V16.9998Z" fill="#C8414B"/>
<path d="M15.2415 19.3447L13.4824 18.7583V18.1726L15.2415 18.7583V19.3447Z" fill="#C8414B"/>
<path d="M5.56886 16.9997L6.06624 14.7632C6.07604 14.7152 6.0751 14.6657 6.0635 14.6181C6.0519 14.5705 6.02992 14.5261 5.99914 14.488C5.96836 14.45 5.92954 14.4192 5.88546 14.3978C5.84138 14.3765 5.79313 14.3652 5.74417 14.3647H5.39421C5.34525 14.3652 5.297 14.3765 5.25292 14.3978C5.20884 14.4192 5.17002 14.45 5.13924 14.488C5.10846 14.5261 5.08648 14.5705 5.07488 14.6181C5.06328 14.6657 5.06235 14.7152 5.07214 14.7632L5.56886 16.9997Z" fill="#C8414B"/>
<path d="M7.62079 15.2415C7.46528 15.2415 7.31613 15.3032 7.20617 15.4132C7.0962 15.5232 7.03442 15.6723 7.03442 15.8278V19.6382C7.03442 20.3501 7.69849 21.6895 9.9656 21.6895C12.2327 21.6895 12.8968 20.3501 12.8968 19.6382V15.8278C12.8968 15.7508 12.8816 15.6746 12.8521 15.6034C12.8227 15.5323 12.7795 15.4676 12.725 15.4132C12.6706 15.3587 12.6059 15.3156 12.5348 15.2861C12.4637 15.2566 12.3874 15.2415 12.3104 15.2415H7.62079Z" fill="#F5F5F5"/>
<path d="M9.9656 18.1726H7.03442V15.8278C7.03442 15.7508 7.04959 15.6746 7.07906 15.6034C7.10853 15.5323 7.15172 15.4676 7.20617 15.4132C7.26062 15.3587 7.32526 15.3156 7.3964 15.2861C7.46754 15.2566 7.54379 15.2415 7.62079 15.2415H9.9656V18.1726Z" fill="#C8414B"/>
<path d="M9.96558 18.1726H12.8967V19.6382C12.8966 20.0268 12.7421 20.3994 12.4673 20.6741C12.1924 20.9488 11.8197 21.1031 11.4312 21.1031V21.1031C11.0426 21.1031 10.6699 20.9488 10.3951 20.6741C10.1202 20.3994 9.96575 20.0268 9.96558 19.6382V18.1726Z" fill="#C8414B"/>
<path d="M7.03442 18.1726H9.9656V19.6382C9.96542 20.0268 9.81093 20.3994 9.5361 20.6741C9.26127 20.9488 8.88859 21.1031 8.50001 21.1031V21.1031C8.11143 21.1031 7.73875 20.9488 7.46392 20.6741C7.18909 20.3994 7.0346 20.0268 7.03442 19.6382V18.1726Z" fill="#FAB446"/>
<path d="M9.37934 20.8036V18.1726H8.79297V21.0739C9.00624 21.029 9.20665 20.9366 9.37934 20.8036V20.8036Z" fill="#C8414B"/>
<path d="M8.20722 21.0739V18.1726H7.62085V20.8036C7.79354 20.9366 7.99395 21.029 8.20722 21.0739V21.0739Z" fill="#C8414B"/>
<path d="M9.37929 16.9998H7.62085V17.5861H9.37929V16.9998Z" fill="#FFB441"/>
<path d="M9.37929 15.8271H7.62085V16.4135H9.37929V15.8271Z" fill="#FAB446"/>
<path d="M9.08564 16.1758H7.91357V17.2376H9.08564V16.1758Z" fill="#FAB446"/>
<path d="M6.15449 15.8271H4.98242V20.8096H6.15449V15.8271Z" fill="#F5F5F5"/>
<path d="M6.44813 20.5173H4.6897V21.1037H6.44813V20.5173Z" fill="#FAB446"/>
<path d="M6.44813 15.2415H4.6897V15.8278H6.44813V15.2415Z" fill="#FAB446"/>
<path d="M6.74153 21.1033H4.39673V21.6896H6.74153V21.1033Z" fill="#5064AA"/>
<path d="M15.5343 20.5173H13.7759V21.1037H15.5343V20.5173Z" fill="#FAB446"/>
<path d="M15.5345 21.1033H13.1897V21.6896H15.5345V21.1033Z" fill="#5064AA"/>
<path d="M11.7248 14.655H8.20728V15.2414H11.7248V14.655Z" fill="#FAB446"/>
<path d="M10.2592 12.8965H9.67285V14.6549H10.2592V12.8965Z" fill="#FFB441"/>
<path d="M9.37922 13.7758C9.20533 13.7758 9.03534 13.7242 8.89075 13.6276C8.74616 13.531 8.63347 13.3937 8.56693 13.233C8.50038 13.0724 8.48297 12.8956 8.51689 12.725C8.55082 12.5545 8.63456 12.3978 8.75752 12.2749C8.88048 12.1519 9.03714 12.0682 9.20769 12.0342C9.37824 12.0003 9.55503 12.0177 9.71568 12.0843C9.87634 12.1508 10.0137 12.2635 10.1103 12.4081C10.2069 12.5527 10.2584 12.7227 10.2584 12.8966C10.2581 13.1296 10.1653 13.3531 10.0005 13.5179C9.83572 13.6827 9.61229 13.7754 9.37922 13.7758V13.7758ZM9.37922 12.603C9.32114 12.6029 9.26433 12.62 9.21597 12.6522C9.16761 12.6844 9.12989 12.7301 9.10757 12.7838C9.08526 12.8374 9.07935 12.8964 9.0906 12.9534C9.10185 13.0104 9.12975 13.0627 9.17077 13.1039C9.21179 13.145 9.26409 13.173 9.32105 13.1844C9.378 13.1958 9.43705 13.19 9.49072 13.1678C9.5444 13.1456 9.59028 13.108 9.62256 13.0597C9.65484 13.0114 9.67207 12.9546 9.67207 12.8966C9.67207 12.8188 9.64124 12.7443 9.58634 12.6892C9.53144 12.6342 9.45695 12.6032 9.37922 12.603V12.603Z" fill="#F5F5F5"/>
<path d="M10.5521 13.7758C10.3782 13.7758 10.2082 13.7242 10.0636 13.6276C9.91902 13.531 9.80632 13.3937 9.73978 13.233C9.67323 13.0724 9.65582 12.8956 9.68975 12.725C9.72367 12.5545 9.80741 12.3978 9.93037 12.2749C10.0533 12.1519 10.21 12.0682 10.3805 12.0342C10.5511 12.0003 10.7279 12.0177 10.8885 12.0843C11.0492 12.1508 11.1865 12.2635 11.2831 12.4081C11.3797 12.5527 11.4313 12.7227 11.4313 12.8966C11.4309 13.1296 11.3382 13.3531 11.1734 13.5179C11.0086 13.6827 10.7851 13.7754 10.5521 13.7758V13.7758ZM10.5521 12.603C10.494 12.6029 10.4372 12.62 10.3888 12.6522C10.3405 12.6844 10.3027 12.7301 10.2804 12.7838C10.2581 12.8374 10.2522 12.8964 10.2635 12.9534C10.2747 13.0104 10.3026 13.0627 10.3436 13.1039C10.3846 13.145 10.4369 13.173 10.4939 13.1844C10.5509 13.1958 10.6099 13.19 10.6636 13.1678C10.7172 13.1456 10.7631 13.108 10.7954 13.0597C10.8277 13.0114 10.8449 12.9546 10.8449 12.8966C10.8449 12.8188 10.8141 12.7443 10.7592 12.6892C10.7043 12.6342 10.6298 12.6032 10.5521 12.603V12.603Z" fill="#F5F5F5"/>
<path d="M11.7241 14.3623C11.5501 14.3624 11.38 14.311 11.2352 14.2145C11.0905 14.118 10.9776 13.9807 10.9109 13.8201C10.8441 13.6594 10.8265 13.4826 10.8602 13.3119C10.8939 13.1412 10.9775 12.9844 11.1003 12.8612C11.2231 12.738 11.3797 12.654 11.5503 12.6197C11.7208 12.5855 11.8977 12.6026 12.0586 12.6689C12.2194 12.7352 12.357 12.8476 12.454 12.9921C12.5509 13.1365 12.6029 13.3065 12.6033 13.4804C12.6034 13.5961 12.5808 13.7106 12.5368 13.8175C12.4927 13.9244 12.4279 14.0216 12.3463 14.1035C12.2647 14.1854 12.1677 14.2504 12.0609 14.2948C11.9542 14.3392 11.8397 14.3621 11.7241 14.3623V14.3623ZM11.7241 13.1896C11.666 13.19 11.6093 13.2076 11.5613 13.2402C11.5132 13.2728 11.4759 13.3189 11.4541 13.3728C11.4322 13.4266 11.4269 13.4857 11.4386 13.5425C11.4504 13.5994 11.4788 13.6515 11.5202 13.6923C11.5616 13.733 11.6141 13.7606 11.6712 13.7714C11.7282 13.7823 11.7872 13.776 11.8407 13.7533C11.8941 13.7306 11.9397 13.6926 11.9715 13.644C12.0034 13.5954 12.0201 13.5385 12.0196 13.4804C12.0189 13.4027 11.9874 13.3284 11.932 13.2739C11.8766 13.2194 11.8018 13.189 11.7241 13.1896Z" fill="#F5F5F5"/>
<path d="M8.20721 14.3623C8.03324 14.3624 7.86314 14.311 7.7184 14.2145C7.57366 14.118 7.46077 13.9807 7.39402 13.8201C7.32726 13.6594 7.30963 13.4826 7.34334 13.3119C7.37706 13.1412 7.46061 12.9844 7.58343 12.8612C7.70626 12.738 7.86286 12.654 8.03342 12.6197C8.20399 12.5855 8.38088 12.6026 8.54173 12.6689C8.70258 12.7352 8.84017 12.8476 8.93712 12.9921C9.03408 13.1365 9.08603 13.3065 9.08642 13.4804C9.08669 13.5961 9.06414 13.7107 9.02008 13.8176C8.97602 13.9245 8.91131 14.0217 8.82965 14.1037C8.74799 14.1856 8.65098 14.2506 8.54418 14.2949C8.43737 14.3393 8.32286 14.3622 8.20721 14.3623V14.3623ZM8.20721 13.1896C8.14901 13.1894 8.09209 13.2066 8.04368 13.2389C7.99527 13.2712 7.95755 13.3171 7.93531 13.3709C7.91308 13.4247 7.90733 13.4839 7.91879 13.5409C7.93026 13.598 7.95843 13.6503 7.99972 13.6913C8.041 13.7323 8.09355 13.7602 8.15068 13.7712C8.20781 13.7823 8.26694 13.7762 8.32056 13.7536C8.37419 13.7309 8.41988 13.6929 8.45184 13.6443C8.4838 13.5957 8.50058 13.5386 8.50006 13.4804C8.49936 13.4032 8.46822 13.3293 8.41339 13.2748C8.35856 13.2204 8.28448 13.1897 8.20721 13.1896Z" fill="#F5F5F5"/>
<path d="M11.7241 19.3447V19.6382C11.7205 19.7135 11.688 19.7846 11.6334 19.8367C11.5789 19.8887 11.5063 19.9177 11.4309 19.9177C11.3555 19.9177 11.2829 19.8887 11.2283 19.8367C11.1737 19.7846 11.1413 19.7135 11.1377 19.6382V19.3447H11.7241ZM12.3104 18.7583H10.552V19.6382C10.552 19.8714 10.6446 20.095 10.8095 20.2599C10.9744 20.4248 11.198 20.5174 11.4312 20.5174C11.6644 20.5174 11.888 20.4248 12.0529 20.2599C12.2178 20.095 12.3104 19.8714 12.3104 19.6382V18.7583V18.7583Z" fill="#FAB446"/>
<path d="M11.4311 17.5863C11.2756 17.5863 11.1264 17.5245 11.0165 17.4146C10.9065 17.3046 10.8447 17.1555 10.8447 17V16.4136C10.8447 16.3366 10.8599 16.2604 10.8894 16.1893C10.9188 16.1182 10.9621 16.0536 11.0165 15.9992C11.071 15.9448 11.1356 15.9017 11.2068 15.8723C11.2779 15.8429 11.3541 15.8278 11.4311 15.8279V15.8279C11.5865 15.8279 11.7355 15.8896 11.8455 15.9994C11.9554 16.1092 12.0173 16.2582 12.0175 16.4136V17C12.0175 17.1555 11.9557 17.3046 11.8457 17.4146C11.7358 17.5245 11.5866 17.5863 11.4311 17.5863V17.5863Z" fill="#FFA0D2"/>
<path d="M9.96565 19.0512C10.4512 19.0512 10.8449 18.6575 10.8449 18.1719C10.8449 17.6864 10.4512 17.2927 9.96565 17.2927C9.48007 17.2927 9.08643 17.6864 9.08643 18.1719C9.08643 18.6575 9.48007 19.0512 9.96565 19.0512Z" fill="#5064AA"/>
<path d="M10.2592 11.7239H9.67285V13.4823H10.2592V11.7239Z" fill="#FAB446"/>
<path d="M8.20722 14.6549L7.62085 14.0686L7.96417 13.7252C8.22702 13.4624 8.53907 13.254 8.88248 13.1118C9.2259 12.9696 9.59396 12.8964 9.96565 12.8965V12.8965C10.7163 12.8966 11.4362 13.1947 11.9671 13.7252L12.3105 14.0686L11.7241 14.6549H8.20722Z" fill="#C8414B"/>
<path d="M9.9657 14.3616C10.1274 14.3616 10.2586 14.2305 10.2586 14.0687C10.2586 13.907 10.1274 13.7759 9.9657 13.7759C9.80397 13.7759 9.67285 13.907 9.67285 14.0687C9.67285 14.2305 9.80397 14.3616 9.9657 14.3616Z" fill="#FFD250"/>
<path d="M8.79285 14.3616C8.95459 14.3616 9.0857 14.2305 9.0857 14.0687C9.0857 13.907 8.95459 13.7759 8.79285 13.7759C8.63111 13.7759 8.5 13.907 8.5 14.0687C8.5 14.2305 8.63111 14.3616 8.79285 14.3616Z" fill="#FFD250"/>
<path d="M11.1376 14.3616C11.2993 14.3616 11.4304 14.2305 11.4304 14.0687C11.4304 13.907 11.2993 13.7759 11.1376 13.7759C10.9758 13.7759 10.8447 13.907 10.8447 14.0687C10.8447 14.2305 10.9758 14.3616 11.1376 14.3616Z" fill="#FFD250"/>
<path d="M7.62087 16.9998H4.6897V17.5861H7.62087V16.9998Z" fill="#C8414B"/>
<path d="M4.6897 19.3447L6.44813 18.7583V18.1726L4.6897 18.7583V19.3447Z" fill="#C8414B"/>
</g>
<defs>
<clipPath id="clip0_855_3446">
<rect width="34" height="34" fill="white"/>
</clipPath>
</defs>
</svg>
